<svg xmlns="http://www.w3.org/2000/svg" viewBox="0 0 800 600" width="800" height="600">
  <defs>
    <linearGradient id="bg" x1="0" y1="0" x2="1" y2="1">
      <stop offset="0%" stop-color="#0d1117"/>
      <stop offset="100%" stop-color="#161b22"/>
    </linearGradient>
    <filter id="glow">
      <feGaussianBlur stdDeviation="8" result="blur"/>
      <feMerge><feMergeNode in="blur"/><feMergeNode in="SourceGraphic"/></feMerge>
    </filter>
  </defs>

  <!-- Background -->
  <rect width="800" height="600" fill="url(#bg)"/>

  <!-- Grid lines -->
  <line x1="0" y1="0" x2="0" y2="600" stroke="#10b981" stroke-width="0.2" opacity="0.15"/>
  <line x1="67" y1="0" x2="67" y2="600" stroke="#10b981" stroke-width="0.2" opacity="0.15"/>
  <line x1="134" y1="0" x2="134" y2="600" stroke="#10b981" stroke-width="0.2" opacity="0.15"/>
  <line x1="201" y1="0" x2="201" y2="600" stroke="#10b981" stroke-width="0.2" opacity="0.15"/>
  <line x1="268" y1="0" x2="268" y2="600" stroke="#10b981" stroke-width="0.2" opacity="0.15"/>
  <line x1="335" y1="0" x2="335" y2="600" stroke="#10b981" stroke-width="0.2" opacity="0.15"/>
  <line x1="402" y1="0" x2="402" y2="600" stroke="#10b981" stroke-width="0.2" opacity="0.15"/>
  <line x1="469" y1="0" x2="469" y2="600" stroke="#10b981" stroke-width="0.2" opacity="0.15"/>
  <line x1="536" y1="0" x2="536" y2="600" stroke="#10b981" stroke-width="0.2" opacity="0.15"/>
  <line x1="603" y1="0" x2="603" y2="600" stroke="#10b981" stroke-width="0.2" opacity="0.15"/>
  <line x1="670" y1="0" x2="670" y2="600" stroke="#10b981" stroke-width="0.2" opacity="0.15"/>
  <line x1="737" y1="0" x2="737" y2="600" stroke="#10b981" stroke-width="0.2" opacity="0.15"/>
  <line x1="0" y1="0" x2="800" y2="0" stroke="#10b981" stroke-width="0.2" opacity="0.15"/>
  <line x1="0" y1="67" x2="800" y2="67" stroke="#10b981" stroke-width="0.2" opacity="0.15"/>
  <line x1="0" y1="134" x2="800" y2="134" stroke="#10b981" stroke-width="0.2" opacity="0.15"/>
  <line x1="0" y1="201" x2="800" y2="201" stroke="#10b981" stroke-width="0.2" opacity="0.15"/>
  <line x1="0" y1="268" x2="800" y2="268" stroke="#10b981" stroke-width="0.2" opacity="0.15"/>
  <line x1="0" y1="335" x2="800" y2="335" stroke="#10b981" stroke-width="0.2" opacity="0.15"/>
  <line x1="0" y1="402" x2="800" y2="402" stroke="#10b981" stroke-width="0.2" opacity="0.15"/>
  <line x1="0" y1="469" x2="800" y2="469" stroke="#10b981" stroke-width="0.2" opacity="0.15"/>
  <line x1="0" y1="536" x2="800" y2="536" stroke="#10b981" stroke-width="0.2" opacity="0.15"/>

  <!-- Glow orb -->
  <circle cx="400" cy="250" r="200" fill="#10b981" opacity="0.06" filter="url(#glow)"/>

  <!-- Module preview illustration -->
  <!-- phone frame -->
  <rect x="290" y="70" width="220" height="420" rx="26" fill="#0a1f17" stroke="#10b981" stroke-width="1.8"/>
  <rect x="368" y="82" width="64" height="7" rx="3.5" fill="#10b981" opacity="0.4"/>

  <!-- page content -->
  <rect x="306" y="104" width="80" height="11" rx="3" fill="#10b981" opacity="0.30"/>
  <rect x="306" y="126" width="188" height="26" rx="5" fill="#0d2d24" stroke="#10b981" stroke-width="0.7"/>
  <circle cx="320" cy="139" r="5" fill="none" stroke="#10b981" stroke-width="1.3"/>
  <rect x="306" y="164" width="90" height="90" rx="5" fill="#0d2d24" stroke="#10b981" stroke-width="0.7"/>
  <rect x="404" y="164" width="90" height="90" rx="5" fill="#0d2d24" stroke="#10b981" stroke-width="0.7"/>
  <rect x="306" y="266" width="90" height="90" rx="5" fill="#0d2d24" stroke="#10b981" stroke-width="0.7"/>
  <rect x="404" y="266" width="90" height="90" rx="5" fill="#0d2d24" stroke="#10b981" stroke-width="0.7"/>
  <rect x="306" y="368" width="188" height="9" rx="3" fill="#10b981" opacity="0.13"/>
  <rect x="306" y="384" width="150" height="9" rx="3" fill="#10b981" opacity="0.13"/>

  <!-- bottom bar -->
  <rect x="292" y="412" width="216" height="66" rx="0" fill="#0d2d24"/>
  <rect x="292" y="412" width="216" height="1.5" fill="#10b981" opacity="0.6"/>
  <path d="M292 466v-54h216v54a12 12 0 0 1-12 12H304a12 12 0 0 1-12-12z" fill="#0d2d24"/>

  <!-- home -->
  <path d="M310 438l10-8 10 8v13h-6v-8h-8v8h-6z" fill="none" stroke="#10b981" stroke-width="1.6" stroke-linejoin="round"/>
  <text x="320" y="466" fill="#10b981" font-size="7.5" text-anchor="middle" font-family="sans-serif">Home</text>

  <!-- categories -->
  <rect x="352" y="431" width="8" height="8" rx="1.5" fill="none" stroke="#6ee7b7" stroke-width="1.5"/>
  <rect x="364" y="431" width="8" height="8" rx="1.5" fill="none" stroke="#6ee7b7" stroke-width="1.5"/>
  <rect x="352" y="443" width="8" height="8" rx="1.5" fill="none" stroke="#6ee7b7" stroke-width="1.5"/>
  <rect x="364" y="443" width="8" height="8" rx="1.5" fill="none" stroke="#6ee7b7" stroke-width="1.5"/>
  <text x="362" y="466" fill="#6ee7b7" font-size="7.5" text-anchor="middle" font-family="sans-serif">Categories</text>

  <!-- search -->
  <circle cx="399" cy="439" r="7" fill="none" stroke="#6ee7b7" stroke-width="1.6"/>
  <line x1="404" y1="444" x2="409" y2="450" stroke="#6ee7b7" stroke-width="1.6" stroke-linecap="round"/>
  <text x="402" y="466" fill="#6ee7b7" font-size="7.5" text-anchor="middle" font-family="sans-serif">Search</text>

  <!-- cart with badge -->
  <path d="M436 431h3l3 14h12l3-10h-16" fill="none" stroke="#6ee7b7" stroke-width="1.6" stroke-linecap="round" stroke-linejoin="round"/>
  <circle cx="443" cy="450" r="1.8" fill="#6ee7b7"/>
  <circle cx="452" cy="450" r="1.8" fill="#6ee7b7"/>
  <circle cx="456" cy="429" r="7" fill="#dc2626"/>
  <text x="456" y="432" fill="#ffffff" font-size="8" font-weight="bold" text-anchor="middle" font-family="sans-serif">3</text>
  <text x="444" y="466" fill="#6ee7b7" font-size="7.5" text-anchor="middle" font-family="sans-serif">Cart</text>

  <!-- account -->
  <circle cx="486" cy="436" r="4.5" fill="none" stroke="#6ee7b7" stroke-width="1.6"/>
  <path d="M479 452a7.5 7.5 0 0 1 14 0" fill="none" stroke="#6ee7b7" stroke-width="1.6" stroke-linecap="round"/>
  <text x="486" y="466" fill="#6ee7b7" font-size="7.5" text-anchor="middle" font-family="sans-serif">Account</text>

  <!-- safe area indicator -->
  <rect x="366" y="481" width="68" height="3.5" rx="1.75" fill="#10b981" opacity="0.35"/>

  <!-- category sheet, sliding up beside the phone -->
  <rect x="552" y="230" width="196" height="250" rx="12" fill="#0d2d24" stroke="#10b981" stroke-width="1"/>
  <text x="570" y="256" fill="#f0fdf4" font-size="12" font-weight="bold" font-family="sans-serif">Categories</text>
  <text x="730" y="257" fill="#6ee7b7" font-size="15" text-anchor="end" font-family="sans-serif">x</text>
  <line x1="552" y1="268" x2="748" y2="268" stroke="#10b981" stroke-width="0.6" opacity="0.35"/>
  <text x="570" y="290" fill="#6ee7b7" font-size="11" font-family="sans-serif">Components <tspan opacity="0.55">(24)</tspan></text>
  <line x1="552" y1="302" x2="748" y2="302" stroke="#10b981" stroke-width="0.5" opacity="0.2"/>
  <text x="570" y="324" fill="#6ee7b7" font-size="11" font-family="sans-serif">Laptops <tspan opacity="0.55">(18)</tspan></text>
  <line x1="552" y1="336" x2="748" y2="336" stroke="#10b981" stroke-width="0.5" opacity="0.2"/>
  <text x="570" y="358" fill="#6ee7b7" font-size="11" font-family="sans-serif">Cameras <tspan opacity="0.55">(9)</tspan></text>
  <line x1="552" y1="370" x2="748" y2="370" stroke="#10b981" stroke-width="0.5" opacity="0.2"/>
  <text x="570" y="392" fill="#6ee7b7" font-size="11" font-family="sans-serif">Phones <tspan opacity="0.55">(31)</tspan></text>
  <line x1="552" y1="404" x2="748" y2="404" stroke="#10b981" stroke-width="0.5" opacity="0.2"/>
  <text x="570" y="426" fill="#6ee7b7" font-size="11" font-family="sans-serif">Software <tspan opacity="0.55">(6)</tspan></text>
  <line x1="552" y1="438" x2="748" y2="438" stroke="#10b981" stroke-width="0.5" opacity="0.2"/>
  <text x="570" y="460" fill="#6ee7b7" font-size="11" font-family="sans-serif">Tablets <tspan opacity="0.55">(12)</tspan></text>
  <path d="M640 214l10-12 10 12" fill="none" stroke="#10b981" stroke-width="2" stroke-linecap="round" stroke-linejoin="round" opacity="0.7"/>

  <!-- desktop-hidden note -->
  <rect x="52" y="230" width="196" height="90" rx="10" fill="#0d2d24" stroke="#10b981" stroke-width="1" opacity="0.55"/>
  <text x="150" y="266" fill="#6ee7b7" font-size="12" text-anchor="middle" font-family="sans-serif" opacity="0.9">Desktop</text>
  <text x="150" y="290" fill="#10b981" font-size="12" font-weight="bold" text-anchor="middle" font-family="sans-serif">bar hidden</text>
  <text x="150" y="308" fill="#6ee7b7" font-size="9.5" text-anchor="middle" font-family="sans-serif" opacity="0.7">above 768px</text>

  <!-- Label area -->
  <rect x="0" y="525" width="800" height="75" fill="#161b22"/>
  <rect x="0" y="525" width="800" height="3" fill="#10b981"/>

  <text x="30" y="552" fill="#f0fdf4" font-size="22" font-weight="bold" font-family="sans-serif">NovaKur Mobile Bottom Nav</text>

  <rect x="680" y="535" width="90" height="30" rx="6" fill="#1a3a2a"/><text x="725" y="556" fill="#10b981" font-size="14" font-weight="bold" text-anchor="middle" font-family="sans-serif">$24</text>

  <rect x="30" y="562" width="60" height="16" rx="4" fill="#10b981" opacity="0.15"/>
  <text x="60" y="574" fill="#10b981" font-size="9" font-weight="bold" text-anchor="middle" font-family="sans-serif">MODULE</text>
</svg>
