<svg xmlns="http://www.w3.org/2000/svg" viewBox="0 0 800 600" width="800" height="600">
  <defs>
    <linearGradient id="bg" x1="0" y1="0" x2="1" y2="1">
      <stop offset="0%" stop-color="#0d1117"/>
      <stop offset="100%" stop-color="#161b22"/>
    </linearGradient>
    <filter id="glow">
      <feGaussianBlur stdDeviation="8" result="blur"/>
      <feMerge><feMergeNode in="blur"/><feMergeNode in="SourceGraphic"/></feMerge>
    </filter>
  </defs>

  <!-- Background -->
  <rect width="800" height="600" fill="url(#bg)"/>

  <!-- Grid lines -->
  <line x1="0" y1="0" x2="0" y2="600" stroke="#10b981" stroke-width="0.2" opacity="0.15"/>
  <line x1="67" y1="0" x2="67" y2="600" stroke="#10b981" stroke-width="0.2" opacity="0.15"/>
  <line x1="134" y1="0" x2="134" y2="600" stroke="#10b981" stroke-width="0.2" opacity="0.15"/>
  <line x1="201" y1="0" x2="201" y2="600" stroke="#10b981" stroke-width="0.2" opacity="0.15"/>
  <line x1="268" y1="0" x2="268" y2="600" stroke="#10b981" stroke-width="0.2" opacity="0.15"/>
  <line x1="335" y1="0" x2="335" y2="600" stroke="#10b981" stroke-width="0.2" opacity="0.15"/>
  <line x1="402" y1="0" x2="402" y2="600" stroke="#10b981" stroke-width="0.2" opacity="0.15"/>
  <line x1="469" y1="0" x2="469" y2="600" stroke="#10b981" stroke-width="0.2" opacity="0.15"/>
  <line x1="536" y1="0" x2="536" y2="600" stroke="#10b981" stroke-width="0.2" opacity="0.15"/>
  <line x1="603" y1="0" x2="603" y2="600" stroke="#10b981" stroke-width="0.2" opacity="0.15"/>
  <line x1="670" y1="0" x2="670" y2="600" stroke="#10b981" stroke-width="0.2" opacity="0.15"/>
  <line x1="737" y1="0" x2="737" y2="600" stroke="#10b981" stroke-width="0.2" opacity="0.15"/>
  <line x1="0" y1="0" x2="800" y2="0" stroke="#10b981" stroke-width="0.2" opacity="0.15"/>
  <line x1="0" y1="67" x2="800" y2="67" stroke="#10b981" stroke-width="0.2" opacity="0.15"/>
  <line x1="0" y1="134" x2="800" y2="134" stroke="#10b981" stroke-width="0.2" opacity="0.15"/>
  <line x1="0" y1="201" x2="800" y2="201" stroke="#10b981" stroke-width="0.2" opacity="0.15"/>
  <line x1="0" y1="268" x2="800" y2="268" stroke="#10b981" stroke-width="0.2" opacity="0.15"/>
  <line x1="0" y1="335" x2="800" y2="335" stroke="#10b981" stroke-width="0.2" opacity="0.15"/>
  <line x1="0" y1="402" x2="800" y2="402" stroke="#10b981" stroke-width="0.2" opacity="0.15"/>
  <line x1="0" y1="469" x2="800" y2="469" stroke="#10b981" stroke-width="0.2" opacity="0.15"/>
  <line x1="0" y1="536" x2="800" y2="536" stroke="#10b981" stroke-width="0.2" opacity="0.15"/>

  <!-- Glow orb -->
  <circle cx="400" cy="250" r="200" fill="#10b981" opacity="0.06" filter="url(#glow)"/>

  <!-- Module preview illustration -->
  <rect x="150" y="145" width="500" height="215" rx="12" fill="#0d2d24" stroke="#10b981" stroke-width="1.5"/>
               <text x="400" y="175" fill="#f0fdf4" font-size="14" font-weight="bold" text-anchor="middle" font-family="sans-serif">Size Guide</text>
               
               <rect x="170" y="188" width="60" height="24" rx="4" fill="#0a1f17" stroke="#10b981" stroke-width="1"/>
               <text x="200" y="205" fill="#6ee7b7" font-size="10" font-weight="bold" text-anchor="middle" font-family="sans-serif">XS</text>
               <rect x="245" y="188" width="60" height="24" rx="4" fill="#0a1f17" stroke="#10b981" stroke-width="1"/>
               <text x="275" y="205" fill="#6ee7b7" font-size="10" font-weight="bold" text-anchor="middle" font-family="sans-serif">S</text>
               <rect x="320" y="188" width="60" height="24" rx="4" fill="#10b981" stroke="#10b981" stroke-width="1"/>
               <text x="350" y="205" fill="white" font-size="10" font-weight="bold" text-anchor="middle" font-family="sans-serif">M</text>
               <rect x="395" y="188" width="60" height="24" rx="4" fill="#0a1f17" stroke="#10b981" stroke-width="1"/>
               <text x="425" y="205" fill="#6ee7b7" font-size="10" font-weight="bold" text-anchor="middle" font-family="sans-serif">L</text>
               <rect x="470" y="188" width="60" height="24" rx="4" fill="#0a1f17" stroke="#10b981" stroke-width="1"/>
               <text x="500" y="205" fill="#6ee7b7" font-size="10" font-weight="bold" text-anchor="middle" font-family="sans-serif">XL</text>
               <rect x="545" y="188" width="60" height="24" rx="4" fill="#0a1f17" stroke="#10b981" stroke-width="1"/>
               <text x="575" y="205" fill="#6ee7b7" font-size="10" font-weight="bold" text-anchor="middle" font-family="sans-serif">XXL</text>
               <rect x="160" y="225" width="480" height="1" fill="#1a3a2a"/>
               
               <text x="175" y="248" fill="#6ee7b7" font-size="9" font-family="sans-serif">Chest</text>
               
               <text x="220" y="248" fill="#6ee7b7" font-size="9" text-anchor="middle" font-family="sans-serif">32-34</text>
               <text x="295" y="248" fill="#6ee7b7" font-size="9" text-anchor="middle" font-family="sans-serif">34-36</text>
               <text x="370" y="248" fill="#6ee7b7" font-size="9" text-anchor="middle" font-family="sans-serif">36-38</text>
               <text x="445" y="248" fill="#6ee7b7" font-size="9" text-anchor="middle" font-family="sans-serif">38-40</text>
               <text x="520" y="248" fill="#6ee7b7" font-size="9" text-anchor="middle" font-family="sans-serif">40-42</text>
               <text x="595" y="248" fill="#6ee7b7" font-size="9" text-anchor="middle" font-family="sans-serif">42-44</text>
               <text x="175" y="266" fill="#6ee7b7" font-size="9" font-family="sans-serif">Waist</text>
               
               <text x="220" y="266" fill="#6ee7b7" font-size="9" text-anchor="middle" font-family="sans-serif">32-34</text>
               <text x="295" y="266" fill="#6ee7b7" font-size="9" text-anchor="middle" font-family="sans-serif">34-36</text>
               <text x="370" y="266" fill="#6ee7b7" font-size="9" text-anchor="middle" font-family="sans-serif">36-38</text>
               <text x="445" y="266" fill="#6ee7b7" font-size="9" text-anchor="middle" font-family="sans-serif">38-40</text>
               <text x="520" y="266" fill="#6ee7b7" font-size="9" text-anchor="middle" font-family="sans-serif">40-42</text>
               <text x="595" y="266" fill="#6ee7b7" font-size="9" text-anchor="middle" font-family="sans-serif">42-44</text>
               <text x="175" y="284" fill="#6ee7b7" font-size="9" font-family="sans-serif">Hip</text>
               
               <text x="220" y="284" fill="#6ee7b7" font-size="9" text-anchor="middle" font-family="sans-serif">32-34</text>
               <text x="295" y="284" fill="#6ee7b7" font-size="9" text-anchor="middle" font-family="sans-serif">34-36</text>
               <text x="370" y="284" fill="#6ee7b7" font-size="9" text-anchor="middle" font-family="sans-serif">36-38</text>
               <text x="445" y="284" fill="#6ee7b7" font-size="9" text-anchor="middle" font-family="sans-serif">38-40</text>
               <text x="520" y="284" fill="#6ee7b7" font-size="9" text-anchor="middle" font-family="sans-serif">40-42</text>
               <text x="595" y="284" fill="#6ee7b7" font-size="9" text-anchor="middle" font-family="sans-serif">42-44</text>

  <!-- Label area -->
  <rect x="0" y="525" width="800" height="75" fill="#161b22"/>
  <rect x="0" y="525" width="800" height="3" fill="#10b981"/>

  <text x="30" y="552" fill="#f0fdf4" font-size="22" font-weight="bold" font-family="sans-serif">NovaKur Size Guide</text>

  <rect x="680" y="535" width="90" height="30" rx="6" fill="#1a3a2a"/><text x="725" y="556" fill="#10b981" font-size="12" font-weight="bold" text-anchor="middle" font-family="sans-serif">FREE</text>

  <rect x="30" y="562" width="60" height="16" rx="4" fill="#10b981" opacity="0.15"/>
  <text x="60" y="574" fill="#10b981" font-size="9" font-weight="bold" text-anchor="middle" font-family="sans-serif">MODULE</text>
</svg>